<svg width="54" height="76" viewBox="0 0 54 76" fill="none" xmlns="http://www.w3.org/2000/svg">
<path d="M45.3871 9.80645H19.6451V7.35484H20.8709C21.5491 7.35484 22.0967 6.80538 22.0967 6.12903V1.22581C22.0967 0.549458 21.5491 0 20.8709 0H3.70965C3.0315 0 2.48384 0.549458 2.48384 1.22581V6.12903C2.48384 6.80538 3.0315 7.35484 3.70965 7.35484H4.93545V10.6462C2.04152 12.0264 0.0322266 14.973 0.0322266 18.3871V67.4194C0.0322266 72.1496 3.88262 76 8.61287 76H45.3871C50.1173 76 53.9677 72.1496 53.9677 67.4194V18.3871C53.9677 13.6557 50.1173 9.80645 45.3871 9.80645ZM51.5161 18.3871V37.4924L46.6129 32.5892V20.8387C46.6129 18.8115 44.9627 17.1613 42.9354 17.1613H31.1849L26.2817 12.2581H45.3871C48.7664 12.2581 51.5161 15.0077 51.5161 18.3871ZM44.1613 30.1376L33.6366 19.6129H42.9354C43.6118 19.6129 44.1613 20.1636 44.1613 20.8387V30.1376ZM4.93545 2.45161H19.6451V4.90323H4.93545V2.45161ZM7.38706 7.35484H17.1935V9.80645H8.61287C8.19629 9.80645 7.78928 9.84715 7.38706 9.90461V7.35484ZM45.3871 73.5484H8.61287C5.23352 73.5484 2.48384 70.7987 2.48384 67.4194V18.3871C2.48384 15.0077 5.23352 12.2581 8.61287 12.2581H22.815L51.5161 40.9592V67.4194C51.5161 70.7987 48.7664 73.5484 45.3871 73.5484Z" fill="white"/>
</svg>
