<svg width="62" height="76" viewBox="0 0 62 76" fill="none" xmlns="http://www.w3.org/2000/svg">
<path d="M57.9679 31.871H34.6776V29.4194H36.5971L42.6674 19.3017C43.8549 17.3217 44.484 15.0538 44.484 12.7447C44.484 5.71724 38.7668 0 31.7393 0H30.2621C23.2335 0 17.5163 5.71724 17.5163 12.7447C17.5163 15.0538 18.1453 17.3217 19.3316 19.3029L25.4032 29.4194H27.3227V31.871H4.0324C2.00515 31.871 0.35498 33.5211 0.35498 35.5484V72.3226C0.35498 74.3498 2.00515 76 4.0324 76H57.9679C59.9951 76 61.6453 74.3498 61.6453 72.3226V35.5484C61.6453 33.5211 59.9951 31.871 57.9679 31.871ZM37.1292 73.5484H32.2259V61.2903H39.5808V53.9355H44.484V44.129H34.6776V39.2258H54.2905V51.4839H49.3872V58.8387H44.484V66.1935H37.1292V73.5484ZM42.0324 12.7447C42.0324 13.5671 41.9169 14.3787 41.7247 15.1706C37.5254 13.5437 34.6776 9.47905 34.6776 4.90323V2.88436C38.9248 4.15326 42.0324 8.09044 42.0324 12.7447ZM27.3227 2.88436V4.90323C27.3227 9.47905 24.4749 13.5437 20.2755 15.1706C20.0834 14.3787 19.9679 13.5671 19.9679 12.7447C19.9679 8.09044 23.0755 4.15326 27.3227 2.88436ZM21.4337 18.0411C21.3224 17.855 21.2392 17.6563 21.1398 17.4653C26.2855 15.4794 29.7743 10.5049 29.7743 4.90323V2.47615C29.9371 2.46897 30.0969 2.45161 30.2609 2.45161H31.7381C31.9033 2.45161 32.0631 2.46897 32.2259 2.47615V4.90323C32.2259 10.5049 35.7148 15.4794 40.8605 17.4642C40.7611 17.6551 40.6779 17.8538 40.5666 18.0399L35.2097 26.9677H26.7918L21.4337 18.0411ZM32.2259 29.4194V44.129H29.7743V29.4194H32.2259ZM27.3227 44.129H22.4195V39.2258H27.3227V44.129ZM2.80659 72.3226V35.5484C2.80659 34.8732 3.35605 34.3226 4.0324 34.3226H27.3227V36.7742H19.9679V46.5806H42.0324V51.4839H37.1292V58.8387H29.7743V73.5484H4.0324C3.35605 73.5484 2.80659 72.9989 2.80659 72.3226ZM59.1937 72.3226C59.1937 72.9989 58.6442 73.5484 57.9679 73.5484H39.5808V68.6452H46.9356V61.2903H51.8388V53.9355H56.7421V36.7742H34.6776V34.3226H57.9679C58.6442 34.3226 59.1937 34.8732 59.1937 35.5484V72.3226Z" fill="white"/>
</svg>
